<mxfile host="Electron" agent="Mozilla/5.0 (Macintosh; Intel Mac OS X 10_15_7) AppleWebKit/537.36 (KHTML, like Gecko) draw.io/24.7.5 Chrome/126.0.6478.183 Electron/31.3.0 Safari/537.36" version="24.7.5">
  <diagram id="C5RBs43oDa-KdzZeNtuy" name="Page-1">
    <mxGraphModel dx="2520" dy="1973" grid="1" gridSize="10" guides="1" tooltips="1" connect="1" arrows="1" fold="1" page="0" pageScale="1" pageWidth="827" pageHeight="1169" math="0" shadow="0">
      <root>
        <mxCell id="WIyWlLk6GJQsqaUBKTNV-0" />
        <mxCell id="WIyWlLk6GJQsqaUBKTNV-1" parent="WIyWlLk6GJQsqaUBKTNV-0" />
        <mxCell id="WvGBIlMx4rj5G6PDdZ6k-129" value="" style="rounded=1;whiteSpace=wrap;html=1;" vertex="1" parent="WIyWlLk6GJQsqaUBKTNV-1">
          <mxGeometry x="530" y="1280" width="630" height="420" as="geometry" />
        </mxCell>
        <mxCell id="WIyWlLk6GJQsqaUBKTNV-2" value="" style="rounded=0;html=1;jettySize=auto;orthogonalLoop=1;fontSize=11;endArrow=block;endFill=0;endSize=8;strokeWidth=1;shadow=0;labelBackgroundColor=none;edgeStyle=orthogonalEdgeStyle;" parent="WIyWlLk6GJQsqaUBKTNV-1" source="WIyWlLk6GJQsqaUBKTNV-3" target="WIyWlLk6GJQsqaUBKTNV-6" edge="1">
          <mxGeometry relative="1" as="geometry">
            <Array as="points">
              <mxPoint x="80" y="20" />
              <mxPoint x="210" y="20" />
            </Array>
          </mxGeometry>
        </mxCell>
        <mxCell id="WvGBIlMx4rj5G6PDdZ6k-3" style="edgeStyle=orthogonalEdgeStyle;rounded=0;orthogonalLoop=1;jettySize=auto;html=1;exitX=0.5;exitY=1;exitDx=0;exitDy=0;entryX=0.5;entryY=0;entryDx=0;entryDy=0;" edge="1" parent="WIyWlLk6GJQsqaUBKTNV-1" source="WIyWlLk6GJQsqaUBKTNV-3" target="WvGBIlMx4rj5G6PDdZ6k-0">
          <mxGeometry relative="1" as="geometry">
            <Array as="points">
              <mxPoint x="80" y="-10" />
              <mxPoint x="80" y="-10" />
            </Array>
          </mxGeometry>
        </mxCell>
        <mxCell id="WvGBIlMx4rj5G6PDdZ6k-4" style="edgeStyle=orthogonalEdgeStyle;rounded=0;orthogonalLoop=1;jettySize=auto;html=1;exitX=0.5;exitY=1;exitDx=0;exitDy=0;entryX=0.5;entryY=0;entryDx=0;entryDy=0;" edge="1" parent="WIyWlLk6GJQsqaUBKTNV-1" source="WIyWlLk6GJQsqaUBKTNV-3" target="WvGBIlMx4rj5G6PDdZ6k-5">
          <mxGeometry relative="1" as="geometry">
            <mxPoint x="-80" y="100" as="targetPoint" />
            <Array as="points">
              <mxPoint x="80" y="20" />
              <mxPoint x="-70" y="20" />
            </Array>
          </mxGeometry>
        </mxCell>
        <mxCell id="WIyWlLk6GJQsqaUBKTNV-3" value="Login to System" style="rounded=1;whiteSpace=wrap;html=1;fontSize=12;glass=0;strokeWidth=1;shadow=0;" parent="WIyWlLk6GJQsqaUBKTNV-1" vertex="1">
          <mxGeometry x="12" y="-80" width="136" height="40" as="geometry" />
        </mxCell>
        <mxCell id="WvGBIlMx4rj5G6PDdZ6k-15" style="edgeStyle=orthogonalEdgeStyle;rounded=0;orthogonalLoop=1;jettySize=auto;html=1;exitX=0.5;exitY=1;exitDx=0;exitDy=0;entryX=0.5;entryY=0;entryDx=0;entryDy=0;" edge="1" parent="WIyWlLk6GJQsqaUBKTNV-1" source="WIyWlLk6GJQsqaUBKTNV-6" target="WvGBIlMx4rj5G6PDdZ6k-9">
          <mxGeometry relative="1" as="geometry" />
        </mxCell>
        <mxCell id="WIyWlLk6GJQsqaUBKTNV-6" value="Gov.br" style="rhombus;whiteSpace=wrap;html=1;shadow=0;fontFamily=Helvetica;fontSize=12;align=center;strokeWidth=1;spacing=6;spacingTop=-4;" parent="WIyWlLk6GJQsqaUBKTNV-1" vertex="1">
          <mxGeometry x="170" y="80" width="100" height="80" as="geometry" />
        </mxCell>
        <mxCell id="WvGBIlMx4rj5G6PDdZ6k-14" style="edgeStyle=orthogonalEdgeStyle;rounded=0;orthogonalLoop=1;jettySize=auto;html=1;exitX=0.5;exitY=1;exitDx=0;exitDy=0;entryX=0.5;entryY=0;entryDx=0;entryDy=0;" edge="1" parent="WIyWlLk6GJQsqaUBKTNV-1" source="WvGBIlMx4rj5G6PDdZ6k-0" target="WvGBIlMx4rj5G6PDdZ6k-9">
          <mxGeometry relative="1" as="geometry">
            <mxPoint x="400" y="290" as="targetPoint" />
          </mxGeometry>
        </mxCell>
        <mxCell id="WvGBIlMx4rj5G6PDdZ6k-0" value="Email" style="rhombus;whiteSpace=wrap;html=1;shadow=0;fontFamily=Helvetica;fontSize=12;align=center;strokeWidth=1;spacing=6;spacingTop=-4;" vertex="1" parent="WIyWlLk6GJQsqaUBKTNV-1">
          <mxGeometry x="30" y="80" width="100" height="80" as="geometry" />
        </mxCell>
        <mxCell id="WvGBIlMx4rj5G6PDdZ6k-13" style="edgeStyle=orthogonalEdgeStyle;rounded=0;orthogonalLoop=1;jettySize=auto;html=1;exitX=0.5;exitY=1;exitDx=0;exitDy=0;entryX=0.5;entryY=0;entryDx=0;entryDy=0;" edge="1" parent="WIyWlLk6GJQsqaUBKTNV-1" source="WvGBIlMx4rj5G6PDdZ6k-5" target="WvGBIlMx4rj5G6PDdZ6k-9">
          <mxGeometry relative="1" as="geometry" />
        </mxCell>
        <mxCell id="WvGBIlMx4rj5G6PDdZ6k-5" value="Google" style="rhombus;whiteSpace=wrap;html=1;shadow=0;fontFamily=Helvetica;fontSize=12;align=center;strokeWidth=1;spacing=6;spacingTop=-4;" vertex="1" parent="WIyWlLk6GJQsqaUBKTNV-1">
          <mxGeometry x="-120" y="80" width="100" height="80" as="geometry" />
        </mxCell>
        <mxCell id="WvGBIlMx4rj5G6PDdZ6k-17" style="edgeStyle=orthogonalEdgeStyle;rounded=0;orthogonalLoop=1;jettySize=auto;html=1;exitX=1;exitY=0.5;exitDx=0;exitDy=0;entryX=0;entryY=0.5;entryDx=0;entryDy=0;" edge="1" parent="WIyWlLk6GJQsqaUBKTNV-1" source="WvGBIlMx4rj5G6PDdZ6k-9" target="WvGBIlMx4rj5G6PDdZ6k-16">
          <mxGeometry relative="1" as="geometry" />
        </mxCell>
        <mxCell id="WvGBIlMx4rj5G6PDdZ6k-9" value="Unique Auth ID" style="shape=hexagon;perimeter=hexagonPerimeter2;whiteSpace=wrap;html=1;fixedSize=1;" vertex="1" parent="WIyWlLk6GJQsqaUBKTNV-1">
          <mxGeometry x="20" y="290" width="120" height="80" as="geometry" />
        </mxCell>
        <mxCell id="WvGBIlMx4rj5G6PDdZ6k-22" value="" style="edgeStyle=orthogonalEdgeStyle;rounded=0;orthogonalLoop=1;jettySize=auto;html=1;" edge="1" parent="WIyWlLk6GJQsqaUBKTNV-1" source="WvGBIlMx4rj5G6PDdZ6k-16" target="WvGBIlMx4rj5G6PDdZ6k-21">
          <mxGeometry relative="1" as="geometry" />
        </mxCell>
        <mxCell id="WvGBIlMx4rj5G6PDdZ6k-16" value="Generate Eth Address" style="rounded=1;whiteSpace=wrap;html=1;fontSize=12;glass=0;strokeWidth=1;shadow=0;" vertex="1" parent="WIyWlLk6GJQsqaUBKTNV-1">
          <mxGeometry x="182" y="310" width="138" height="40" as="geometry" />
        </mxCell>
        <mxCell id="WvGBIlMx4rj5G6PDdZ6k-24" value="" style="edgeStyle=orthogonalEdgeStyle;rounded=0;orthogonalLoop=1;jettySize=auto;html=1;" edge="1" parent="WIyWlLk6GJQsqaUBKTNV-1" source="WvGBIlMx4rj5G6PDdZ6k-21" target="WvGBIlMx4rj5G6PDdZ6k-23">
          <mxGeometry relative="1" as="geometry" />
        </mxCell>
        <mxCell id="WvGBIlMx4rj5G6PDdZ6k-35" value="" style="edgeStyle=orthogonalEdgeStyle;rounded=0;orthogonalLoop=1;jettySize=auto;html=1;" edge="1" parent="WIyWlLk6GJQsqaUBKTNV-1" source="WvGBIlMx4rj5G6PDdZ6k-21" target="WvGBIlMx4rj5G6PDdZ6k-34">
          <mxGeometry relative="1" as="geometry" />
        </mxCell>
        <mxCell id="WvGBIlMx4rj5G6PDdZ6k-21" value="Enter PIN" style="whiteSpace=wrap;html=1;rounded=1;glass=0;strokeWidth=1;shadow=0;" vertex="1" parent="WIyWlLk6GJQsqaUBKTNV-1">
          <mxGeometry x="460" y="300" width="120" height="60" as="geometry" />
        </mxCell>
        <mxCell id="WvGBIlMx4rj5G6PDdZ6k-26" value="" style="edgeStyle=orthogonalEdgeStyle;rounded=0;orthogonalLoop=1;jettySize=auto;html=1;" edge="1" parent="WIyWlLk6GJQsqaUBKTNV-1" source="WvGBIlMx4rj5G6PDdZ6k-23">
          <mxGeometry relative="1" as="geometry">
            <mxPoint x="520" y="520" as="targetPoint" />
          </mxGeometry>
        </mxCell>
        <mxCell id="WvGBIlMx4rj5G6PDdZ6k-36" style="edgeStyle=orthogonalEdgeStyle;rounded=0;orthogonalLoop=1;jettySize=auto;html=1;exitX=1;exitY=0.5;exitDx=0;exitDy=0;entryX=0;entryY=0.5;entryDx=0;entryDy=0;" edge="1" parent="WIyWlLk6GJQsqaUBKTNV-1" source="WvGBIlMx4rj5G6PDdZ6k-23" target="WvGBIlMx4rj5G6PDdZ6k-34">
          <mxGeometry relative="1" as="geometry" />
        </mxCell>
        <mxCell id="WvGBIlMx4rj5G6PDdZ6k-23" value="Confirm PIN" style="whiteSpace=wrap;html=1;rounded=1;glass=0;strokeWidth=1;shadow=0;" vertex="1" parent="WIyWlLk6GJQsqaUBKTNV-1">
          <mxGeometry x="460" y="406" width="120" height="60" as="geometry" />
        </mxCell>
        <mxCell id="WvGBIlMx4rj5G6PDdZ6k-28" value="" style="edgeStyle=orthogonalEdgeStyle;rounded=0;orthogonalLoop=1;jettySize=auto;html=1;" edge="1" parent="WIyWlLk6GJQsqaUBKTNV-1" source="WvGBIlMx4rj5G6PDdZ6k-25" target="WvGBIlMx4rj5G6PDdZ6k-27">
          <mxGeometry relative="1" as="geometry" />
        </mxCell>
        <mxCell id="WvGBIlMx4rj5G6PDdZ6k-25" value="Choose Security Question" style="whiteSpace=wrap;html=1;rounded=1;glass=0;strokeWidth=1;shadow=0;" vertex="1" parent="WIyWlLk6GJQsqaUBKTNV-1">
          <mxGeometry x="460" y="707" width="120" height="60" as="geometry" />
        </mxCell>
        <mxCell id="WvGBIlMx4rj5G6PDdZ6k-30" value="" style="edgeStyle=orthogonalEdgeStyle;rounded=0;orthogonalLoop=1;jettySize=auto;html=1;" edge="1" parent="WIyWlLk6GJQsqaUBKTNV-1" source="WvGBIlMx4rj5G6PDdZ6k-27" target="WvGBIlMx4rj5G6PDdZ6k-29">
          <mxGeometry relative="1" as="geometry" />
        </mxCell>
        <mxCell id="WvGBIlMx4rj5G6PDdZ6k-32" value="" style="edgeStyle=orthogonalEdgeStyle;rounded=0;orthogonalLoop=1;jettySize=auto;html=1;" edge="1" parent="WIyWlLk6GJQsqaUBKTNV-1" source="WvGBIlMx4rj5G6PDdZ6k-27" target="WvGBIlMx4rj5G6PDdZ6k-31">
          <mxGeometry relative="1" as="geometry" />
        </mxCell>
        <mxCell id="WvGBIlMx4rj5G6PDdZ6k-27" value="Answer" style="whiteSpace=wrap;html=1;rounded=1;glass=0;strokeWidth=1;shadow=0;" vertex="1" parent="WIyWlLk6GJQsqaUBKTNV-1">
          <mxGeometry x="460" y="807" width="120" height="60" as="geometry" />
        </mxCell>
        <mxCell id="WvGBIlMx4rj5G6PDdZ6k-33" style="edgeStyle=orthogonalEdgeStyle;rounded=0;orthogonalLoop=1;jettySize=auto;html=1;exitX=1;exitY=0.5;exitDx=0;exitDy=0;entryX=0;entryY=0.5;entryDx=0;entryDy=0;" edge="1" parent="WIyWlLk6GJQsqaUBKTNV-1" source="WvGBIlMx4rj5G6PDdZ6k-29" target="WvGBIlMx4rj5G6PDdZ6k-31">
          <mxGeometry relative="1" as="geometry" />
        </mxCell>
        <mxCell id="WvGBIlMx4rj5G6PDdZ6k-108" value="" style="edgeStyle=orthogonalEdgeStyle;rounded=0;orthogonalLoop=1;jettySize=auto;html=1;" edge="1" parent="WIyWlLk6GJQsqaUBKTNV-1" source="WvGBIlMx4rj5G6PDdZ6k-29" target="WvGBIlMx4rj5G6PDdZ6k-107">
          <mxGeometry relative="1" as="geometry" />
        </mxCell>
        <mxCell id="WvGBIlMx4rj5G6PDdZ6k-29" value="Confirm Answer" style="whiteSpace=wrap;html=1;rounded=1;glass=0;strokeWidth=1;shadow=0;" vertex="1" parent="WIyWlLk6GJQsqaUBKTNV-1">
          <mxGeometry x="460" y="904" width="120" height="60" as="geometry" />
        </mxCell>
        <mxCell id="WvGBIlMx4rj5G6PDdZ6k-49" style="edgeStyle=orthogonalEdgeStyle;rounded=0;orthogonalLoop=1;jettySize=auto;html=1;entryX=0;entryY=0.5;entryDx=0;entryDy=0;" edge="1" parent="WIyWlLk6GJQsqaUBKTNV-1" source="WvGBIlMx4rj5G6PDdZ6k-31" target="WvGBIlMx4rj5G6PDdZ6k-47">
          <mxGeometry relative="1" as="geometry">
            <Array as="points">
              <mxPoint x="900" y="887" />
              <mxPoint x="900" y="760" />
            </Array>
          </mxGeometry>
        </mxCell>
        <mxCell id="WvGBIlMx4rj5G6PDdZ6k-31" value="toLowerCase()&lt;br&gt;SHA256&amp;nbsp;&lt;br&gt;Answer" style="whiteSpace=wrap;html=1;rounded=1;glass=0;strokeWidth=1;shadow=0;" vertex="1" parent="WIyWlLk6GJQsqaUBKTNV-1">
          <mxGeometry x="700" y="857" width="120" height="60" as="geometry" />
        </mxCell>
        <mxCell id="WvGBIlMx4rj5G6PDdZ6k-51" value="" style="edgeStyle=orthogonalEdgeStyle;rounded=0;orthogonalLoop=1;jettySize=auto;html=1;" edge="1" parent="WIyWlLk6GJQsqaUBKTNV-1" source="WvGBIlMx4rj5G6PDdZ6k-34" target="WvGBIlMx4rj5G6PDdZ6k-50">
          <mxGeometry relative="1" as="geometry" />
        </mxCell>
        <mxCell id="WvGBIlMx4rj5G6PDdZ6k-60" style="edgeStyle=orthogonalEdgeStyle;rounded=0;orthogonalLoop=1;jettySize=auto;html=1;exitX=0.5;exitY=1;exitDx=0;exitDy=0;entryX=0;entryY=0.5;entryDx=0;entryDy=0;" edge="1" parent="WIyWlLk6GJQsqaUBKTNV-1" source="WvGBIlMx4rj5G6PDdZ6k-34" target="WvGBIlMx4rj5G6PDdZ6k-56">
          <mxGeometry relative="1" as="geometry" />
        </mxCell>
        <mxCell id="WvGBIlMx4rj5G6PDdZ6k-34" value="SHA256&amp;nbsp;PIN" style="whiteSpace=wrap;html=1;rounded=1;glass=0;strokeWidth=1;shadow=0;" vertex="1" parent="WIyWlLk6GJQsqaUBKTNV-1">
          <mxGeometry x="690" y="360" width="120" height="60" as="geometry" />
        </mxCell>
        <mxCell id="WvGBIlMx4rj5G6PDdZ6k-39" value="" style="edgeStyle=orthogonalEdgeStyle;rounded=0;orthogonalLoop=1;jettySize=auto;html=1;" edge="1" parent="WIyWlLk6GJQsqaUBKTNV-1" source="WvGBIlMx4rj5G6PDdZ6k-37" target="WvGBIlMx4rj5G6PDdZ6k-38">
          <mxGeometry relative="1" as="geometry" />
        </mxCell>
        <mxCell id="WvGBIlMx4rj5G6PDdZ6k-42" style="edgeStyle=orthogonalEdgeStyle;rounded=0;orthogonalLoop=1;jettySize=auto;html=1;exitX=1;exitY=0.5;exitDx=0;exitDy=0;entryX=0;entryY=0.5;entryDx=0;entryDy=0;" edge="1" parent="WIyWlLk6GJQsqaUBKTNV-1" source="WvGBIlMx4rj5G6PDdZ6k-37" target="WvGBIlMx4rj5G6PDdZ6k-44">
          <mxGeometry relative="1" as="geometry">
            <mxPoint x="660" y="550" as="targetPoint" />
          </mxGeometry>
        </mxCell>
        <mxCell id="WvGBIlMx4rj5G6PDdZ6k-37" value="Enter CPF" style="whiteSpace=wrap;html=1;rounded=1;glass=0;strokeWidth=1;shadow=0;" vertex="1" parent="WIyWlLk6GJQsqaUBKTNV-1">
          <mxGeometry x="460" y="510" width="120" height="60" as="geometry" />
        </mxCell>
        <mxCell id="WvGBIlMx4rj5G6PDdZ6k-40" value="" style="edgeStyle=orthogonalEdgeStyle;rounded=0;orthogonalLoop=1;jettySize=auto;html=1;" edge="1" parent="WIyWlLk6GJQsqaUBKTNV-1" source="WvGBIlMx4rj5G6PDdZ6k-38" target="WvGBIlMx4rj5G6PDdZ6k-25">
          <mxGeometry relative="1" as="geometry" />
        </mxCell>
        <mxCell id="WvGBIlMx4rj5G6PDdZ6k-45" style="edgeStyle=orthogonalEdgeStyle;rounded=0;orthogonalLoop=1;jettySize=auto;html=1;entryX=0;entryY=0.5;entryDx=0;entryDy=0;" edge="1" parent="WIyWlLk6GJQsqaUBKTNV-1" source="WvGBIlMx4rj5G6PDdZ6k-38" target="WvGBIlMx4rj5G6PDdZ6k-44">
          <mxGeometry relative="1" as="geometry" />
        </mxCell>
        <mxCell id="WvGBIlMx4rj5G6PDdZ6k-38" value="Confirm CPF" style="whiteSpace=wrap;html=1;rounded=1;glass=0;strokeWidth=1;shadow=0;" vertex="1" parent="WIyWlLk6GJQsqaUBKTNV-1">
          <mxGeometry x="460" y="607" width="120" height="60" as="geometry" />
        </mxCell>
        <mxCell id="WvGBIlMx4rj5G6PDdZ6k-61" style="edgeStyle=orthogonalEdgeStyle;rounded=0;orthogonalLoop=1;jettySize=auto;html=1;exitX=0.5;exitY=0;exitDx=0;exitDy=0;entryX=0;entryY=0.5;entryDx=0;entryDy=0;" edge="1" parent="WIyWlLk6GJQsqaUBKTNV-1" source="WvGBIlMx4rj5G6PDdZ6k-46" target="WvGBIlMx4rj5G6PDdZ6k-56">
          <mxGeometry relative="1" as="geometry">
            <Array as="points">
              <mxPoint x="750" y="647" />
              <mxPoint x="750" y="490" />
            </Array>
          </mxGeometry>
        </mxCell>
        <mxCell id="WvGBIlMx4rj5G6PDdZ6k-44" value="SHA256 CPF" style="whiteSpace=wrap;html=1;rounded=1;glass=0;strokeWidth=1;shadow=0;" vertex="1" parent="WIyWlLk6GJQsqaUBKTNV-1">
          <mxGeometry x="690" y="647" width="120" height="60" as="geometry" />
        </mxCell>
        <mxCell id="WvGBIlMx4rj5G6PDdZ6k-52" style="edgeStyle=orthogonalEdgeStyle;rounded=0;orthogonalLoop=1;jettySize=auto;html=1;entryX=0.5;entryY=1;entryDx=0;entryDy=0;" edge="1" parent="WIyWlLk6GJQsqaUBKTNV-1" source="WvGBIlMx4rj5G6PDdZ6k-47" target="WvGBIlMx4rj5G6PDdZ6k-50">
          <mxGeometry relative="1" as="geometry">
            <Array as="points">
              <mxPoint x="1130" y="450" />
              <mxPoint x="1130" y="450" />
            </Array>
          </mxGeometry>
        </mxCell>
        <mxCell id="WvGBIlMx4rj5G6PDdZ6k-47" value="SHA256&lt;div&gt;MASTER PASSWORD&lt;/div&gt;" style="whiteSpace=wrap;html=1;rounded=1;glass=0;strokeWidth=1;shadow=0;" vertex="1" parent="WIyWlLk6GJQsqaUBKTNV-1">
          <mxGeometry x="1080" y="730" width="120" height="60" as="geometry" />
        </mxCell>
        <mxCell id="WvGBIlMx4rj5G6PDdZ6k-54" value="" style="edgeStyle=orthogonalEdgeStyle;rounded=0;orthogonalLoop=1;jettySize=auto;html=1;" edge="1" parent="WIyWlLk6GJQsqaUBKTNV-1" source="WvGBIlMx4rj5G6PDdZ6k-50" target="WvGBIlMx4rj5G6PDdZ6k-53">
          <mxGeometry relative="1" as="geometry" />
        </mxCell>
        <mxCell id="WvGBIlMx4rj5G6PDdZ6k-50" value="AES256 PIN HASH" style="whiteSpace=wrap;html=1;rounded=1;glass=0;strokeWidth=1;shadow=0;" vertex="1" parent="WIyWlLk6GJQsqaUBKTNV-1">
          <mxGeometry x="1070" y="360" width="120" height="60" as="geometry" />
        </mxCell>
        <mxCell id="WvGBIlMx4rj5G6PDdZ6k-53" value="DB 1" style="shape=document;whiteSpace=wrap;html=1;boundedLbl=1;rounded=1;glass=0;strokeWidth=1;shadow=0;" vertex="1" parent="WIyWlLk6GJQsqaUBKTNV-1">
          <mxGeometry x="1280" y="160" width="120" height="80" as="geometry" />
        </mxCell>
        <mxCell id="WvGBIlMx4rj5G6PDdZ6k-55" value="DB 2" style="shape=document;whiteSpace=wrap;html=1;boundedLbl=1;rounded=1;glass=0;strokeWidth=1;shadow=0;" vertex="1" parent="WIyWlLk6GJQsqaUBKTNV-1">
          <mxGeometry x="1600" y="160" width="120" height="80" as="geometry" />
        </mxCell>
        <mxCell id="WvGBIlMx4rj5G6PDdZ6k-56" value="PRIVATE KEY" style="whiteSpace=wrap;html=1;rounded=1;glass=0;strokeWidth=1;shadow=0;" vertex="1" parent="WIyWlLk6GJQsqaUBKTNV-1">
          <mxGeometry x="910" y="486" width="120" height="80" as="geometry" />
        </mxCell>
        <mxCell id="WvGBIlMx4rj5G6PDdZ6k-46" value="TIMESTAMP 1" style="whiteSpace=wrap;html=1;rounded=1;glass=0;strokeWidth=1;shadow=0;" vertex="1" parent="WIyWlLk6GJQsqaUBKTNV-1">
          <mxGeometry x="690" y="496" width="120" height="60" as="geometry" />
        </mxCell>
        <mxCell id="WvGBIlMx4rj5G6PDdZ6k-90" value="" style="shape=table;startSize=0;container=1;collapsible=0;childLayout=tableLayout;" vertex="1" parent="WIyWlLk6GJQsqaUBKTNV-1">
          <mxGeometry x="1730" y="160" width="140" height="240" as="geometry" />
        </mxCell>
        <mxCell id="WvGBIlMx4rj5G6PDdZ6k-91" value="" style="shape=tableRow;horizontal=0;startSize=0;swimlaneHead=0;swimlaneBody=0;strokeColor=inherit;top=0;left=0;bottom=0;right=0;collapsible=0;dropTarget=0;fillColor=none;points=[[0,0.5],[1,0.5]];portConstraint=eastwest;" vertex="1" parent="WvGBIlMx4rj5G6PDdZ6k-90">
          <mxGeometry width="140" height="40" as="geometry" />
        </mxCell>
        <mxCell id="WvGBIlMx4rj5G6PDdZ6k-92" value="user_id" style="shape=partialRectangle;html=1;whiteSpace=wrap;connectable=0;strokeColor=inherit;overflow=hidden;fillColor=none;top=0;left=0;bottom=0;right=0;pointerEvents=1;" vertex="1" parent="WvGBIlMx4rj5G6PDdZ6k-91">
          <mxGeometry width="140" height="40" as="geometry">
            <mxRectangle width="140" height="40" as="alternateBounds" />
          </mxGeometry>
        </mxCell>
        <mxCell id="WvGBIlMx4rj5G6PDdZ6k-93" value="" style="shape=tableRow;horizontal=0;startSize=0;swimlaneHead=0;swimlaneBody=0;strokeColor=inherit;top=0;left=0;bottom=0;right=0;collapsible=0;dropTarget=0;fillColor=none;points=[[0,0.5],[1,0.5]];portConstraint=eastwest;" vertex="1" parent="WvGBIlMx4rj5G6PDdZ6k-90">
          <mxGeometry y="40" width="140" height="40" as="geometry" />
        </mxCell>
        <mxCell id="WvGBIlMx4rj5G6PDdZ6k-94" value="secret_question" style="shape=partialRectangle;html=1;whiteSpace=wrap;connectable=0;strokeColor=inherit;overflow=hidden;fillColor=none;top=0;left=0;bottom=0;right=0;pointerEvents=1;" vertex="1" parent="WvGBIlMx4rj5G6PDdZ6k-93">
          <mxGeometry width="140" height="40" as="geometry">
            <mxRectangle width="140" height="40" as="alternateBounds" />
          </mxGeometry>
        </mxCell>
        <mxCell id="WvGBIlMx4rj5G6PDdZ6k-95" value="" style="shape=tableRow;horizontal=0;startSize=0;swimlaneHead=0;swimlaneBody=0;strokeColor=inherit;top=0;left=0;bottom=0;right=0;collapsible=0;dropTarget=0;fillColor=none;points=[[0,0.5],[1,0.5]];portConstraint=eastwest;" vertex="1" parent="WvGBIlMx4rj5G6PDdZ6k-90">
          <mxGeometry y="80" width="140" height="40" as="geometry" />
        </mxCell>
        <mxCell id="WvGBIlMx4rj5G6PDdZ6k-96" value="hashed_answer" style="shape=partialRectangle;html=1;whiteSpace=wrap;connectable=0;strokeColor=inherit;overflow=hidden;fillColor=none;top=0;left=0;bottom=0;right=0;pointerEvents=1;" vertex="1" parent="WvGBIlMx4rj5G6PDdZ6k-95">
          <mxGeometry width="140" height="40" as="geometry">
            <mxRectangle width="140" height="40" as="alternateBounds" />
          </mxGeometry>
        </mxCell>
        <mxCell id="WvGBIlMx4rj5G6PDdZ6k-97" value="" style="shape=tableRow;horizontal=0;startSize=0;swimlaneHead=0;swimlaneBody=0;strokeColor=inherit;top=0;left=0;bottom=0;right=0;collapsible=0;dropTarget=0;fillColor=none;points=[[0,0.5],[1,0.5]];portConstraint=eastwest;" vertex="1" parent="WvGBIlMx4rj5G6PDdZ6k-90">
          <mxGeometry y="120" width="140" height="40" as="geometry" />
        </mxCell>
        <mxCell id="WvGBIlMx4rj5G6PDdZ6k-98" value="encrypted_pin" style="shape=partialRectangle;html=1;whiteSpace=wrap;connectable=0;strokeColor=inherit;overflow=hidden;fillColor=none;top=0;left=0;bottom=0;right=0;pointerEvents=1;" vertex="1" parent="WvGBIlMx4rj5G6PDdZ6k-97">
          <mxGeometry width="140" height="40" as="geometry">
            <mxRectangle width="140" height="40" as="alternateBounds" />
          </mxGeometry>
        </mxCell>
        <mxCell id="WvGBIlMx4rj5G6PDdZ6k-99" value="" style="shape=tableRow;horizontal=0;startSize=0;swimlaneHead=0;swimlaneBody=0;strokeColor=inherit;top=0;left=0;bottom=0;right=0;collapsible=0;dropTarget=0;fillColor=none;points=[[0,0.5],[1,0.5]];portConstraint=eastwest;" vertex="1" parent="WvGBIlMx4rj5G6PDdZ6k-90">
          <mxGeometry y="160" width="140" height="40" as="geometry" />
        </mxCell>
        <mxCell id="WvGBIlMx4rj5G6PDdZ6k-100" value="timestamp" style="shape=partialRectangle;html=1;whiteSpace=wrap;connectable=0;strokeColor=inherit;overflow=hidden;fillColor=none;top=0;left=0;bottom=0;right=0;pointerEvents=1;" vertex="1" parent="WvGBIlMx4rj5G6PDdZ6k-99">
          <mxGeometry width="140" height="40" as="geometry">
            <mxRectangle width="140" height="40" as="alternateBounds" />
          </mxGeometry>
        </mxCell>
        <mxCell id="WvGBIlMx4rj5G6PDdZ6k-101" value="" style="shape=tableRow;horizontal=0;startSize=0;swimlaneHead=0;swimlaneBody=0;strokeColor=inherit;top=0;left=0;bottom=0;right=0;collapsible=0;dropTarget=0;fillColor=none;points=[[0,0.5],[1,0.5]];portConstraint=eastwest;" vertex="1" parent="WvGBIlMx4rj5G6PDdZ6k-90">
          <mxGeometry y="200" width="140" height="40" as="geometry" />
        </mxCell>
        <mxCell id="WvGBIlMx4rj5G6PDdZ6k-102" value="" style="shape=partialRectangle;html=1;whiteSpace=wrap;connectable=0;strokeColor=inherit;overflow=hidden;fillColor=none;top=0;left=0;bottom=0;right=0;pointerEvents=1;" vertex="1" parent="WvGBIlMx4rj5G6PDdZ6k-101">
          <mxGeometry width="140" height="40" as="geometry">
            <mxRectangle width="140" height="40" as="alternateBounds" />
          </mxGeometry>
        </mxCell>
        <mxCell id="WvGBIlMx4rj5G6PDdZ6k-106" value="" style="edgeStyle=orthogonalEdgeStyle;rounded=0;orthogonalLoop=1;jettySize=auto;html=1;exitX=1;exitY=0.5;exitDx=0;exitDy=0;" edge="1" parent="WIyWlLk6GJQsqaUBKTNV-1" source="WvGBIlMx4rj5G6PDdZ6k-44" target="WvGBIlMx4rj5G6PDdZ6k-105">
          <mxGeometry relative="1" as="geometry">
            <mxPoint x="810" y="677" as="sourcePoint" />
            <mxPoint x="1080" y="760" as="targetPoint" />
            <Array as="points" />
          </mxGeometry>
        </mxCell>
        <mxCell id="WvGBIlMx4rj5G6PDdZ6k-105" value="TIMESTAMP 1" style="whiteSpace=wrap;html=1;rounded=1;glass=0;strokeWidth=1;shadow=0;" vertex="1" parent="WIyWlLk6GJQsqaUBKTNV-1">
          <mxGeometry x="840" y="730" width="120" height="60" as="geometry" />
        </mxCell>
        <mxCell id="WvGBIlMx4rj5G6PDdZ6k-107" value="DOB" style="whiteSpace=wrap;html=1;rounded=1;glass=0;strokeWidth=1;shadow=0;" vertex="1" parent="WIyWlLk6GJQsqaUBKTNV-1">
          <mxGeometry x="460" y="1044" width="120" height="60" as="geometry" />
        </mxCell>
        <mxCell id="WvGBIlMx4rj5G6PDdZ6k-111" value="" style="edgeStyle=orthogonalEdgeStyle;rounded=0;orthogonalLoop=1;jettySize=auto;html=1;" edge="1" parent="WIyWlLk6GJQsqaUBKTNV-1" source="WvGBIlMx4rj5G6PDdZ6k-109" target="WvGBIlMx4rj5G6PDdZ6k-110">
          <mxGeometry relative="1" as="geometry" />
        </mxCell>
        <mxCell id="WvGBIlMx4rj5G6PDdZ6k-109" value="Create MSG" style="whiteSpace=wrap;html=1;rounded=1;glass=0;strokeWidth=1;shadow=0;" vertex="1" parent="WIyWlLk6GJQsqaUBKTNV-1">
          <mxGeometry x="382" y="1440" width="120" height="60" as="geometry" />
        </mxCell>
        <mxCell id="WvGBIlMx4rj5G6PDdZ6k-117" value="" style="edgeStyle=orthogonalEdgeStyle;rounded=0;orthogonalLoop=1;jettySize=auto;html=1;" edge="1" parent="WIyWlLk6GJQsqaUBKTNV-1" source="WvGBIlMx4rj5G6PDdZ6k-110" target="WvGBIlMx4rj5G6PDdZ6k-116">
          <mxGeometry relative="1" as="geometry" />
        </mxCell>
        <mxCell id="WvGBIlMx4rj5G6PDdZ6k-110" value="Enter PIN" style="whiteSpace=wrap;html=1;rounded=1;glass=0;strokeWidth=1;shadow=0;" vertex="1" parent="WIyWlLk6GJQsqaUBKTNV-1">
          <mxGeometry x="582" y="1440" width="120" height="60" as="geometry" />
        </mxCell>
        <mxCell id="WvGBIlMx4rj5G6PDdZ6k-114" value="" style="edgeStyle=orthogonalEdgeStyle;rounded=0;orthogonalLoop=1;jettySize=auto;html=1;" edge="1" parent="WIyWlLk6GJQsqaUBKTNV-1" source="WvGBIlMx4rj5G6PDdZ6k-112" target="WvGBIlMx4rj5G6PDdZ6k-109">
          <mxGeometry relative="1" as="geometry" />
        </mxCell>
        <mxCell id="WvGBIlMx4rj5G6PDdZ6k-119" style="edgeStyle=orthogonalEdgeStyle;rounded=0;orthogonalLoop=1;jettySize=auto;html=1;entryX=0;entryY=0.5;entryDx=0;entryDy=0;exitX=0.5;exitY=1;exitDx=0;exitDy=0;" edge="1" parent="WIyWlLk6GJQsqaUBKTNV-1" source="WvGBIlMx4rj5G6PDdZ6k-112" target="WvGBIlMx4rj5G6PDdZ6k-118">
          <mxGeometry relative="1" as="geometry" />
        </mxCell>
        <mxCell id="WvGBIlMx4rj5G6PDdZ6k-112" value="User Logged In" style="whiteSpace=wrap;html=1;rounded=1;glass=0;strokeWidth=1;shadow=0;" vertex="1" parent="WIyWlLk6GJQsqaUBKTNV-1">
          <mxGeometry x="182" y="1440" width="120" height="60" as="geometry" />
        </mxCell>
        <mxCell id="WvGBIlMx4rj5G6PDdZ6k-115" value="Sign Message Process" style="whiteSpace=wrap;html=1;rounded=1;glass=0;strokeWidth=1;shadow=0;fontSize=22;strokeColor=none;" vertex="1" parent="WIyWlLk6GJQsqaUBKTNV-1">
          <mxGeometry x="115" y="1330" width="345" height="30" as="geometry" />
        </mxCell>
        <mxCell id="WvGBIlMx4rj5G6PDdZ6k-122" style="edgeStyle=orthogonalEdgeStyle;rounded=0;orthogonalLoop=1;jettySize=auto;html=1;entryX=0;entryY=0.5;entryDx=0;entryDy=0;" edge="1" parent="WIyWlLk6GJQsqaUBKTNV-1" source="WvGBIlMx4rj5G6PDdZ6k-116" target="WvGBIlMx4rj5G6PDdZ6k-121">
          <mxGeometry relative="1" as="geometry" />
        </mxCell>
        <mxCell id="WvGBIlMx4rj5G6PDdZ6k-116" value="SHA256 PIN" style="whiteSpace=wrap;html=1;rounded=1;glass=0;strokeWidth=1;shadow=0;" vertex="1" parent="WIyWlLk6GJQsqaUBKTNV-1">
          <mxGeometry x="782" y="1440" width="120" height="60" as="geometry" />
        </mxCell>
        <mxCell id="WvGBIlMx4rj5G6PDdZ6k-123" style="edgeStyle=orthogonalEdgeStyle;rounded=0;orthogonalLoop=1;jettySize=auto;html=1;exitX=1;exitY=0.5;exitDx=0;exitDy=0;" edge="1" parent="WIyWlLk6GJQsqaUBKTNV-1" source="WvGBIlMx4rj5G6PDdZ6k-118" target="WvGBIlMx4rj5G6PDdZ6k-121">
          <mxGeometry relative="1" as="geometry" />
        </mxCell>
        <mxCell id="WvGBIlMx4rj5G6PDdZ6k-118" value="SHA256 CPF" style="whiteSpace=wrap;html=1;rounded=1;glass=0;strokeWidth=1;shadow=0;" vertex="1" parent="WIyWlLk6GJQsqaUBKTNV-1">
          <mxGeometry x="782" y="1540" width="120" height="60" as="geometry" />
        </mxCell>
        <mxCell id="WvGBIlMx4rj5G6PDdZ6k-124" value="" style="edgeStyle=orthogonalEdgeStyle;rounded=0;orthogonalLoop=1;jettySize=auto;html=1;" edge="1" parent="WIyWlLk6GJQsqaUBKTNV-1" source="WvGBIlMx4rj5G6PDdZ6k-120" target="WvGBIlMx4rj5G6PDdZ6k-121">
          <mxGeometry relative="1" as="geometry" />
        </mxCell>
        <mxCell id="WvGBIlMx4rj5G6PDdZ6k-120" value="TIMESTAMP 1" style="whiteSpace=wrap;html=1;rounded=1;glass=0;strokeWidth=1;shadow=0;" vertex="1" parent="WIyWlLk6GJQsqaUBKTNV-1">
          <mxGeometry x="1000" y="1360" width="120" height="70" as="geometry" />
        </mxCell>
        <mxCell id="WvGBIlMx4rj5G6PDdZ6k-126" value="" style="edgeStyle=orthogonalEdgeStyle;rounded=0;orthogonalLoop=1;jettySize=auto;html=1;" edge="1" parent="WIyWlLk6GJQsqaUBKTNV-1" source="WvGBIlMx4rj5G6PDdZ6k-121" target="WvGBIlMx4rj5G6PDdZ6k-125">
          <mxGeometry relative="1" as="geometry" />
        </mxCell>
        <mxCell id="WvGBIlMx4rj5G6PDdZ6k-121" value="PRIVATE KEY" style="whiteSpace=wrap;html=1;rounded=1;glass=0;strokeWidth=1;shadow=0;" vertex="1" parent="WIyWlLk6GJQsqaUBKTNV-1">
          <mxGeometry x="1000" y="1480" width="120" height="80" as="geometry" />
        </mxCell>
        <mxCell id="WvGBIlMx4rj5G6PDdZ6k-128" value="" style="edgeStyle=orthogonalEdgeStyle;rounded=0;orthogonalLoop=1;jettySize=auto;html=1;" edge="1" parent="WIyWlLk6GJQsqaUBKTNV-1" source="WvGBIlMx4rj5G6PDdZ6k-125" target="WvGBIlMx4rj5G6PDdZ6k-127">
          <mxGeometry relative="1" as="geometry" />
        </mxCell>
        <mxCell id="WvGBIlMx4rj5G6PDdZ6k-125" value="Signed Msg" style="whiteSpace=wrap;html=1;rounded=1;glass=0;strokeWidth=1;shadow=0;" vertex="1" parent="WIyWlLk6GJQsqaUBKTNV-1">
          <mxGeometry x="1200" y="1480" width="120" height="80" as="geometry" />
        </mxCell>
        <mxCell id="WvGBIlMx4rj5G6PDdZ6k-161" value="" style="edgeStyle=orthogonalEdgeStyle;rounded=0;orthogonalLoop=1;jettySize=auto;html=1;" edge="1" parent="WIyWlLk6GJQsqaUBKTNV-1" source="WvGBIlMx4rj5G6PDdZ6k-127" target="WvGBIlMx4rj5G6PDdZ6k-160">
          <mxGeometry relative="1" as="geometry" />
        </mxCell>
        <mxCell id="WvGBIlMx4rj5G6PDdZ6k-162" style="edgeStyle=orthogonalEdgeStyle;rounded=0;orthogonalLoop=1;jettySize=auto;html=1;exitX=0.5;exitY=0;exitDx=0;exitDy=0;entryX=0.5;entryY=1;entryDx=0;entryDy=0;" edge="1" parent="WIyWlLk6GJQsqaUBKTNV-1" source="WvGBIlMx4rj5G6PDdZ6k-127" target="WvGBIlMx4rj5G6PDdZ6k-133">
          <mxGeometry relative="1" as="geometry" />
        </mxCell>
        <mxCell id="WvGBIlMx4rj5G6PDdZ6k-127" value="WS Broadcast to Target RPC" style="whiteSpace=wrap;html=1;rounded=1;glass=0;strokeWidth=1;shadow=0;" vertex="1" parent="WIyWlLk6GJQsqaUBKTNV-1">
          <mxGeometry x="1380" y="1480" width="120" height="80" as="geometry" />
        </mxCell>
        <mxCell id="WvGBIlMx4rj5G6PDdZ6k-157" style="edgeStyle=orthogonalEdgeStyle;rounded=0;orthogonalLoop=1;jettySize=auto;html=1;exitX=0.5;exitY=0;exitDx=0;exitDy=0;entryX=0;entryY=0.5;entryDx=0;entryDy=0;" edge="1" parent="WIyWlLk6GJQsqaUBKTNV-1" source="WvGBIlMx4rj5G6PDdZ6k-130" target="WvGBIlMx4rj5G6PDdZ6k-155">
          <mxGeometry relative="1" as="geometry" />
        </mxCell>
        <mxCell id="WvGBIlMx4rj5G6PDdZ6k-130" value="auth.api.ekonavi.com/sign" style="whiteSpace=wrap;html=1;rounded=1;glass=0;strokeWidth=1;shadow=0;fontSize=22;strokeColor=none;" vertex="1" parent="WIyWlLk6GJQsqaUBKTNV-1">
          <mxGeometry x="578" y="1300" width="243" height="30" as="geometry" />
        </mxCell>
        <mxCell id="WvGBIlMx4rj5G6PDdZ6k-133" value="auth.api.ekonavi.com/broadcast" style="whiteSpace=wrap;html=1;rounded=1;glass=0;strokeWidth=1;shadow=0;fontSize=22;strokeColor=none;" vertex="1" parent="WIyWlLk6GJQsqaUBKTNV-1">
          <mxGeometry x="1317.5" y="1350" width="245" height="30" as="geometry" />
        </mxCell>
        <mxCell id="WvGBIlMx4rj5G6PDdZ6k-134" value="" style="shape=table;startSize=0;container=1;collapsible=0;childLayout=tableLayout;" vertex="1" parent="WIyWlLk6GJQsqaUBKTNV-1">
          <mxGeometry x="1420" y="170" width="140" height="280" as="geometry" />
        </mxCell>
        <mxCell id="WvGBIlMx4rj5G6PDdZ6k-135" value="" style="shape=tableRow;horizontal=0;startSize=0;swimlaneHead=0;swimlaneBody=0;strokeColor=inherit;top=0;left=0;bottom=0;right=0;collapsible=0;dropTarget=0;fillColor=none;points=[[0,0.5],[1,0.5]];portConstraint=eastwest;" vertex="1" parent="WvGBIlMx4rj5G6PDdZ6k-134">
          <mxGeometry width="140" height="40" as="geometry" />
        </mxCell>
        <mxCell id="WvGBIlMx4rj5G6PDdZ6k-136" value="user_id" style="shape=partialRectangle;html=1;whiteSpace=wrap;connectable=0;strokeColor=inherit;overflow=hidden;fillColor=none;top=0;left=0;bottom=0;right=0;pointerEvents=1;" vertex="1" parent="WvGBIlMx4rj5G6PDdZ6k-135">
          <mxGeometry width="140" height="40" as="geometry">
            <mxRectangle width="140" height="40" as="alternateBounds" />
          </mxGeometry>
        </mxCell>
        <mxCell id="WvGBIlMx4rj5G6PDdZ6k-137" value="" style="shape=tableRow;horizontal=0;startSize=0;swimlaneHead=0;swimlaneBody=0;strokeColor=inherit;top=0;left=0;bottom=0;right=0;collapsible=0;dropTarget=0;fillColor=none;points=[[0,0.5],[1,0.5]];portConstraint=eastwest;" vertex="1" parent="WvGBIlMx4rj5G6PDdZ6k-134">
          <mxGeometry y="40" width="140" height="40" as="geometry" />
        </mxCell>
        <mxCell id="WvGBIlMx4rj5G6PDdZ6k-138" value="eth_address" style="shape=partialRectangle;html=1;whiteSpace=wrap;connectable=0;strokeColor=inherit;overflow=hidden;fillColor=none;top=0;left=0;bottom=0;right=0;pointerEvents=1;" vertex="1" parent="WvGBIlMx4rj5G6PDdZ6k-137">
          <mxGeometry width="140" height="40" as="geometry">
            <mxRectangle width="140" height="40" as="alternateBounds" />
          </mxGeometry>
        </mxCell>
        <mxCell id="WvGBIlMx4rj5G6PDdZ6k-139" value="" style="shape=tableRow;horizontal=0;startSize=0;swimlaneHead=0;swimlaneBody=0;strokeColor=inherit;top=0;left=0;bottom=0;right=0;collapsible=0;dropTarget=0;fillColor=none;points=[[0,0.5],[1,0.5]];portConstraint=eastwest;" vertex="1" parent="WvGBIlMx4rj5G6PDdZ6k-134">
          <mxGeometry y="80" width="140" height="40" as="geometry" />
        </mxCell>
        <mxCell id="WvGBIlMx4rj5G6PDdZ6k-140" value="hashed_cpf" style="shape=partialRectangle;html=1;whiteSpace=wrap;connectable=0;strokeColor=inherit;overflow=hidden;fillColor=none;top=0;left=0;bottom=0;right=0;pointerEvents=1;" vertex="1" parent="WvGBIlMx4rj5G6PDdZ6k-139">
          <mxGeometry width="140" height="40" as="geometry">
            <mxRectangle width="140" height="40" as="alternateBounds" />
          </mxGeometry>
        </mxCell>
        <mxCell id="WvGBIlMx4rj5G6PDdZ6k-141" value="" style="shape=tableRow;horizontal=0;startSize=0;swimlaneHead=0;swimlaneBody=0;strokeColor=inherit;top=0;left=0;bottom=0;right=0;collapsible=0;dropTarget=0;fillColor=none;points=[[0,0.5],[1,0.5]];portConstraint=eastwest;" vertex="1" parent="WvGBIlMx4rj5G6PDdZ6k-134">
          <mxGeometry y="120" width="140" height="40" as="geometry" />
        </mxCell>
        <mxCell id="WvGBIlMx4rj5G6PDdZ6k-142" value="encrypted_pin" style="shape=partialRectangle;html=1;whiteSpace=wrap;connectable=0;strokeColor=inherit;overflow=hidden;fillColor=none;top=0;left=0;bottom=0;right=0;pointerEvents=1;" vertex="1" parent="WvGBIlMx4rj5G6PDdZ6k-141">
          <mxGeometry width="140" height="40" as="geometry">
            <mxRectangle width="140" height="40" as="alternateBounds" />
          </mxGeometry>
        </mxCell>
        <mxCell id="WvGBIlMx4rj5G6PDdZ6k-143" value="" style="shape=tableRow;horizontal=0;startSize=0;swimlaneHead=0;swimlaneBody=0;strokeColor=inherit;top=0;left=0;bottom=0;right=0;collapsible=0;dropTarget=0;fillColor=none;points=[[0,0.5],[1,0.5]];portConstraint=eastwest;" vertex="1" parent="WvGBIlMx4rj5G6PDdZ6k-134">
          <mxGeometry y="160" width="140" height="40" as="geometry" />
        </mxCell>
        <mxCell id="WvGBIlMx4rj5G6PDdZ6k-144" value="auth_provider_id" style="shape=partialRectangle;html=1;whiteSpace=wrap;connectable=0;strokeColor=inherit;overflow=hidden;fillColor=none;top=0;left=0;bottom=0;right=0;pointerEvents=1;" vertex="1" parent="WvGBIlMx4rj5G6PDdZ6k-143">
          <mxGeometry width="140" height="40" as="geometry">
            <mxRectangle width="140" height="40" as="alternateBounds" />
          </mxGeometry>
        </mxCell>
        <mxCell id="WvGBIlMx4rj5G6PDdZ6k-145" value="" style="shape=tableRow;horizontal=0;startSize=0;swimlaneHead=0;swimlaneBody=0;strokeColor=inherit;top=0;left=0;bottom=0;right=0;collapsible=0;dropTarget=0;fillColor=none;points=[[0,0.5],[1,0.5]];portConstraint=eastwest;" vertex="1" parent="WvGBIlMx4rj5G6PDdZ6k-134">
          <mxGeometry y="200" width="140" height="40" as="geometry" />
        </mxCell>
        <mxCell id="WvGBIlMx4rj5G6PDdZ6k-146" value="auth_provider_type" style="shape=partialRectangle;html=1;whiteSpace=wrap;connectable=0;strokeColor=inherit;overflow=hidden;fillColor=none;top=0;left=0;bottom=0;right=0;pointerEvents=1;" vertex="1" parent="WvGBIlMx4rj5G6PDdZ6k-145">
          <mxGeometry width="140" height="40" as="geometry">
            <mxRectangle width="140" height="40" as="alternateBounds" />
          </mxGeometry>
        </mxCell>
        <mxCell id="WvGBIlMx4rj5G6PDdZ6k-147" style="shape=tableRow;horizontal=0;startSize=0;swimlaneHead=0;swimlaneBody=0;strokeColor=inherit;top=0;left=0;bottom=0;right=0;collapsible=0;dropTarget=0;fillColor=none;points=[[0,0.5],[1,0.5]];portConstraint=eastwest;" vertex="1" parent="WvGBIlMx4rj5G6PDdZ6k-134">
          <mxGeometry y="240" width="140" height="40" as="geometry" />
        </mxCell>
        <mxCell id="WvGBIlMx4rj5G6PDdZ6k-148" value="auth_provider_email" style="shape=partialRectangle;html=1;whiteSpace=wrap;connectable=0;strokeColor=inherit;overflow=hidden;fillColor=none;top=0;left=0;bottom=0;right=0;pointerEvents=1;" vertex="1" parent="WvGBIlMx4rj5G6PDdZ6k-147">
          <mxGeometry width="140" height="40" as="geometry">
            <mxRectangle width="140" height="40" as="alternateBounds" />
          </mxGeometry>
        </mxCell>
        <mxCell id="WvGBIlMx4rj5G6PDdZ6k-64" value="" style="shape=table;startSize=0;container=1;collapsible=0;childLayout=tableLayout;" vertex="1" parent="WIyWlLk6GJQsqaUBKTNV-1">
          <mxGeometry x="810" y="1060" width="140" height="200" as="geometry" />
        </mxCell>
        <mxCell id="WvGBIlMx4rj5G6PDdZ6k-155" style="shape=tableRow;horizontal=0;startSize=0;swimlaneHead=0;swimlaneBody=0;strokeColor=inherit;top=0;left=0;bottom=0;right=0;collapsible=0;dropTarget=0;fillColor=none;points=[[0,0.5],[1,0.5]];portConstraint=eastwest;" vertex="1" parent="WvGBIlMx4rj5G6PDdZ6k-64">
          <mxGeometry width="140" height="40" as="geometry" />
        </mxCell>
        <mxCell id="WvGBIlMx4rj5G6PDdZ6k-156" value="POST" style="shape=partialRectangle;html=1;whiteSpace=wrap;connectable=0;strokeColor=inherit;overflow=hidden;fillColor=#333333;top=0;left=0;bottom=0;right=0;pointerEvents=1;" vertex="1" parent="WvGBIlMx4rj5G6PDdZ6k-155">
          <mxGeometry width="140" height="40" as="geometry">
            <mxRectangle width="140" height="40" as="alternateBounds" />
          </mxGeometry>
        </mxCell>
        <mxCell id="WvGBIlMx4rj5G6PDdZ6k-65" value="" style="shape=tableRow;horizontal=0;startSize=0;swimlaneHead=0;swimlaneBody=0;strokeColor=inherit;top=0;left=0;bottom=0;right=0;collapsible=0;dropTarget=0;fillColor=none;points=[[0,0.5],[1,0.5]];portConstraint=eastwest;" vertex="1" parent="WvGBIlMx4rj5G6PDdZ6k-64">
          <mxGeometry y="40" width="140" height="40" as="geometry" />
        </mxCell>
        <mxCell id="WvGBIlMx4rj5G6PDdZ6k-66" value="user_id" style="shape=partialRectangle;html=1;whiteSpace=wrap;connectable=0;strokeColor=inherit;overflow=hidden;fillColor=none;top=0;left=0;bottom=0;right=0;pointerEvents=1;" vertex="1" parent="WvGBIlMx4rj5G6PDdZ6k-65">
          <mxGeometry width="140" height="40" as="geometry">
            <mxRectangle width="140" height="40" as="alternateBounds" />
          </mxGeometry>
        </mxCell>
        <mxCell id="WvGBIlMx4rj5G6PDdZ6k-67" value="" style="shape=tableRow;horizontal=0;startSize=0;swimlaneHead=0;swimlaneBody=0;strokeColor=inherit;top=0;left=0;bottom=0;right=0;collapsible=0;dropTarget=0;fillColor=none;points=[[0,0.5],[1,0.5]];portConstraint=eastwest;" vertex="1" parent="WvGBIlMx4rj5G6PDdZ6k-64">
          <mxGeometry y="80" width="140" height="40" as="geometry" />
        </mxCell>
        <mxCell id="WvGBIlMx4rj5G6PDdZ6k-68" value="msg" style="shape=partialRectangle;html=1;whiteSpace=wrap;connectable=0;strokeColor=inherit;overflow=hidden;fillColor=none;top=0;left=0;bottom=0;right=0;pointerEvents=1;" vertex="1" parent="WvGBIlMx4rj5G6PDdZ6k-67">
          <mxGeometry width="140" height="40" as="geometry">
            <mxRectangle width="140" height="40" as="alternateBounds" />
          </mxGeometry>
        </mxCell>
        <mxCell id="WvGBIlMx4rj5G6PDdZ6k-69" value="" style="shape=tableRow;horizontal=0;startSize=0;swimlaneHead=0;swimlaneBody=0;strokeColor=inherit;top=0;left=0;bottom=0;right=0;collapsible=0;dropTarget=0;fillColor=none;points=[[0,0.5],[1,0.5]];portConstraint=eastwest;" vertex="1" parent="WvGBIlMx4rj5G6PDdZ6k-64">
          <mxGeometry y="120" width="140" height="40" as="geometry" />
        </mxCell>
        <mxCell id="WvGBIlMx4rj5G6PDdZ6k-70" value="hashed_cpf" style="shape=partialRectangle;html=1;whiteSpace=wrap;connectable=0;strokeColor=inherit;overflow=hidden;fillColor=none;top=0;left=0;bottom=0;right=0;pointerEvents=1;" vertex="1" parent="WvGBIlMx4rj5G6PDdZ6k-69">
          <mxGeometry width="140" height="40" as="geometry">
            <mxRectangle width="140" height="40" as="alternateBounds" />
          </mxGeometry>
        </mxCell>
        <mxCell id="WvGBIlMx4rj5G6PDdZ6k-71" value="" style="shape=tableRow;horizontal=0;startSize=0;swimlaneHead=0;swimlaneBody=0;strokeColor=inherit;top=0;left=0;bottom=0;right=0;collapsible=0;dropTarget=0;fillColor=none;points=[[0,0.5],[1,0.5]];portConstraint=eastwest;" vertex="1" parent="WvGBIlMx4rj5G6PDdZ6k-64">
          <mxGeometry y="160" width="140" height="40" as="geometry" />
        </mxCell>
        <mxCell id="WvGBIlMx4rj5G6PDdZ6k-72" value="encrypted_pin" style="shape=partialRectangle;html=1;whiteSpace=wrap;connectable=0;strokeColor=inherit;overflow=hidden;fillColor=none;top=0;left=0;bottom=0;right=0;pointerEvents=1;" vertex="1" parent="WvGBIlMx4rj5G6PDdZ6k-71">
          <mxGeometry width="140" height="40" as="geometry">
            <mxRectangle width="140" height="40" as="alternateBounds" />
          </mxGeometry>
        </mxCell>
        <mxCell id="WvGBIlMx4rj5G6PDdZ6k-153" value="auth.ekonavi.com" style="shape=partialRectangle;html=1;whiteSpace=wrap;connectable=0;strokeColor=inherit;overflow=hidden;fillColor=none;top=0;left=0;bottom=0;right=0;pointerEvents=1;fontSize=28;align=left;" vertex="1" parent="WIyWlLk6GJQsqaUBKTNV-1">
          <mxGeometry x="182" y="-80" width="360" height="40" as="geometry">
            <mxRectangle width="140" height="40" as="alternateBounds" />
          </mxGeometry>
        </mxCell>
        <mxCell id="WvGBIlMx4rj5G6PDdZ6k-158" value="" style="rounded=1;whiteSpace=wrap;html=1;" vertex="1" parent="WIyWlLk6GJQsqaUBKTNV-1">
          <mxGeometry x="527" y="1960" width="630" height="420" as="geometry" />
        </mxCell>
        <mxCell id="WvGBIlMx4rj5G6PDdZ6k-159" value="auth.api.ekonavi.com/secure-pinpad" style="whiteSpace=wrap;html=1;rounded=1;glass=0;strokeWidth=1;shadow=0;fontSize=22;strokeColor=none;align=left;" vertex="1" parent="WIyWlLk6GJQsqaUBKTNV-1">
          <mxGeometry x="588" y="2000" width="452" height="30" as="geometry" />
        </mxCell>
        <mxCell id="WvGBIlMx4rj5G6PDdZ6k-160" value="TX RESULT" style="whiteSpace=wrap;html=1;rounded=1;glass=0;strokeWidth=1;shadow=0;" vertex="1" parent="WIyWlLk6GJQsqaUBKTNV-1">
          <mxGeometry x="1580" y="1480" width="120" height="80" as="geometry" />
        </mxCell>
        <mxCell id="WvGBIlMx4rj5G6PDdZ6k-7" value="TIMESTAMP" style="shape=hexagon;perimeter=hexagonPerimeter2;whiteSpace=wrap;html=1;fixedSize=1;" vertex="1" parent="WIyWlLk6GJQsqaUBKTNV-1">
          <mxGeometry x="-330" y="530" width="100" height="100" as="geometry" />
        </mxCell>
        <mxCell id="WvGBIlMx4rj5G6PDdZ6k-8" value="CPF" style="shape=hexagon;perimeter=hexagonPerimeter2;whiteSpace=wrap;html=1;fixedSize=1;" vertex="1" parent="WIyWlLk6GJQsqaUBKTNV-1">
          <mxGeometry x="-330" y="640" width="100" height="100" as="geometry" />
        </mxCell>
        <mxCell id="WvGBIlMx4rj5G6PDdZ6k-10" value="PIN" style="shape=hexagon;perimeter=hexagonPerimeter2;whiteSpace=wrap;html=1;fixedSize=1;" vertex="1" parent="WIyWlLk6GJQsqaUBKTNV-1">
          <mxGeometry x="-240" y="476" width="100" height="100" as="geometry" />
        </mxCell>
        <mxCell id="WvGBIlMx4rj5G6PDdZ6k-11" value="SECURITY QUESTION" style="shape=hexagon;perimeter=hexagonPerimeter2;whiteSpace=wrap;html=1;fixedSize=1;" vertex="1" parent="WIyWlLk6GJQsqaUBKTNV-1">
          <mxGeometry x="-152" y="528" width="100" height="100" as="geometry" />
        </mxCell>
        <mxCell id="WvGBIlMx4rj5G6PDdZ6k-12" value="Answer" style="shape=hexagon;perimeter=hexagonPerimeter2;whiteSpace=wrap;html=1;fixedSize=1;" vertex="1" parent="WIyWlLk6GJQsqaUBKTNV-1">
          <mxGeometry x="-152" y="644" width="100" height="100" as="geometry" />
        </mxCell>
        <mxCell id="WvGBIlMx4rj5G6PDdZ6k-18" value="Unique Id&amp;nbsp;&lt;div&gt;3rd Party&lt;div&gt;2FA&lt;/div&gt;&lt;/div&gt;" style="shape=hexagon;perimeter=hexagonPerimeter2;whiteSpace=wrap;html=1;fixedSize=1;" vertex="1" parent="WIyWlLk6GJQsqaUBKTNV-1">
          <mxGeometry x="-240" y="697" width="100" height="100" as="geometry" />
        </mxCell>
        <mxCell id="WvGBIlMx4rj5G6PDdZ6k-167" style="edgeStyle=orthogonalEdgeStyle;rounded=0;orthogonalLoop=1;jettySize=auto;html=1;exitX=1;exitY=0.5;exitDx=0;exitDy=0;entryX=0;entryY=0.5;entryDx=0;entryDy=0;" edge="1" parent="WIyWlLk6GJQsqaUBKTNV-1" source="WvGBIlMx4rj5G6PDdZ6k-19" target="WvGBIlMx4rj5G6PDdZ6k-166">
          <mxGeometry relative="1" as="geometry" />
        </mxCell>
        <mxCell id="WvGBIlMx4rj5G6PDdZ6k-19" value="Private Key" style="shape=hexagon;perimeter=hexagonPerimeter2;whiteSpace=wrap;html=1;fixedSize=1;" vertex="1" parent="WIyWlLk6GJQsqaUBKTNV-1">
          <mxGeometry x="-240" y="586" width="100" height="100" as="geometry" />
        </mxCell>
        <mxCell id="WvGBIlMx4rj5G6PDdZ6k-164" value="6-point MPC Security" style="shape=partialRectangle;html=1;whiteSpace=wrap;connectable=0;strokeColor=inherit;overflow=hidden;fillColor=none;top=0;left=0;bottom=0;right=0;pointerEvents=1;fontSize=28;align=center;" vertex="1" parent="WIyWlLk6GJQsqaUBKTNV-1">
          <mxGeometry x="-360" y="420" width="360" height="40" as="geometry">
            <mxRectangle width="140" height="40" as="alternateBounds" />
          </mxGeometry>
        </mxCell>
        <mxCell id="WvGBIlMx4rj5G6PDdZ6k-166" value="ETH Address" style="shape=hexagon;perimeter=hexagonPerimeter2;whiteSpace=wrap;html=1;fixedSize=1;" vertex="1" parent="WIyWlLk6GJQsqaUBKTNV-1">
          <mxGeometry x="18" y="586" width="100" height="100" as="geometry" />
        </mxCell>
      </root>
    </mxGraphModel>
  </diagram>
</mxfile>
